/* XPM */
static char * icon_charging_xpm[] = {
"36 64 7 1",
" 	c None",
".	c #808080",
"+	c #000000",
"@	c #808000",
"#	c #FFFF00",
"$	c #C0C0C0",
"%	c #FFFFFF",
"                                    ",
"                                    ",
"                                    ",
"                                    ",
"                                    ",
"                                    ",
"                ..        ..        ",
"                ..        ..        ",
"              ..++      ..++        ",
"              ..++      ..++        ",
"            @@##++    @@##++        ",
"            @@##++    @@##++        ",
"            @@##++    @@##++        ",
"            @@##++    @@##++        ",
"            @@##++    @@##++        ",
"            @@##++    @@##++        ",
"            @@##++    @@##++        ",
"            @@##++    @@##++        ",
"          ..@@##++++..@@##++++....  ",
"          ..@@##++++..@@##++++....  ",
"        ..$$@@$$++..$$@@$$++$$%%..++",
"        ..$$@@$$++..$$@@$$++$$%%..++",
"      ..$$$$@@++$$$$$$@@++$$%%....++",
"      ..$$$$@@++$$$$$$@@++$$%%....++",
"      ..%%%%%%%%%%%%%%%%%%%%....++  ",
"      ..%%%%%%%%%%%%%%%%%%%%....++  ",
"        ......................++++  ",
"        ......................++++  ",
"        ..%%$$%%%%%%%%%%$$$$....++  ",
"        ..%%$$%%%%%%%%%%$$$$....++  ",
"        ..%%$$..........$$$$....++  ",
"        ..%%$$..........$$$$....++  ",
"        ..%%$$%%%%%%%%%%$$$$....++  ",
"        ..%%$$%%%%%%%%%%$$$$....++  ",
"        ..%%$$..........$$$$..++    ",
"        ..%%$$..........$$$$..++    ",
"          ..%%$$$$$$$$$$$$....++    ",
"          ..%%$$$$$$$$$$$$....++    ",
"            ..%%$$$$$$$$$$..++      ",
"            ..%%$$$$$$$$$$..++      ",
"              ++++++++++++++        ",
"              ++++++++++++++        ",
"                ..$$$$....++        ",
"                ..$$$$....++        ",
"                ..++++++++          ",
"                ..++++++++          ",
"                  ......++          ",
"                  ......++          ",
"                  ..%%..++          ",
"                  ..%%..++          ",
"                  ..%%..++          ",
"                  ..%%..++          ",
"                  ..%%..++          ",
"                  ..%%..++          ",
"  ....          ..%%..++            ",
"  ....          ..%%..++            ",
"..%%%%..........%%....++            ",
"..%%%%..........%%....++            ",
"......%%%%%%%%%%....++              ",
"......%%%%%%%%%%....++              ",
"++++............++++                ",
"++++............++++                ",
"    ++++++++++++                    ",
"    ++++++++++++                    "};
