/* XPM */
static char * icon_1_xpm[] = {
"64 64 7 1",
" 	c None",
".	c #808080",
"+	c #FFFFFF",
"@	c #C0C0C0",
"#	c #000000",
"$	c #FF0000",
"%	c #808000",
"                            ..........                          ",
"                            ..........                          ",
"                          ..++++++@@..                          ",
"                          ..++++++@@..                          ",
"                    ........++@@@@@@..######                    ",
"                    ........++@@@@@@..######                    ",
"              ......++++++..++@@......##....######              ",
"              ......++++++..++@@......##....######              ",
"            ......++@@@@@@@@##########............##            ",
"            ......++@@@@@@@@##########............##            ",
"            ..++@@....@@@@@@@@@@@@@@@@@@@@@@@@....##            ",
"            ..++@@....@@@@@@@@@@@@@@@@@@@@@@@@....##            ",
"            ..++@@@@@@........................@@@@##            ",
"            ..++@@@@@@........................@@@@##            ",
"            ..++@@@@@@@@@@@@@@@@@@@@@@@@@@@@@@@@@@##            ",
"            ..++@@@@@@@@@@@@@@@@@@@@@@@@@@@@@@@@@@##            ",
"            ..++@@@@@@@@@@@@@@@@@@@@@@@@@@@@@@@@@@##            ",
"            ..++@@@@@@@@@@@@@@@@@@@@@@@@@@@@@@@@@@##            ",
"            ..++@@@@@@@@@@@@@@@@@@@@@@@@@@@@@@@@@@##            ",
"            ..++@@@@@@@@@@@@@@@@@@@@@@@@@@@@@@@@@@##            ",
"            ..++@@@@@@@@@@@@@@$$$$@@@@@@@@@@@@@@@@##            ",
"            ..++@@@@@@@@@@@@@@$$$$@@@@@@@@@@@@@@@@##            ",
"            ..++@@@@@@@@@@@@@@$$$$@@@@@@@@@@@@@@@@##            ",
"            ..++@@@@@@@@@@@@@@$$$$@@@@@@@@@@@@@@@@##            ",
"            ..++@@@@@@@@@@$$$$$$$$$$$$@@@@@@@@@@@@##            ",
"            ..++@@@@@@@@@@$$$$$$$$$$$$@@@@@@@@@@@@##            ",
"            ..++@@@@@@@@@@$$$$$$$$$$$$@@@@@@@@@@@@##            ",
"            ..++@@@@@@@@@@$$$$$$$$$$$$@@@@@@@@@@@@##            ",
"            ..++@@@@@@@@@@@@@@$$$$@@@@@@@@@@@@@@@@##            ",
"            ..++@@@@@@@@@@@@@@$$$$@@@@@@@@@@@@@@@@##            ",
"            ..++@@@@@@@@@@@@@@$$$$@@@@@@@@@@@@@@@@##            ",
"            ..++@@@@@@@@@@@@@@$$$$@@@@@@@@@@@@@@@@##            ",
"            ..++@@@@@@@@@@@@@@@@@@@@@@@@@@@@@@@@@@##            ",
"            ..++@@@@@@@@@@@@@@@@@@@@@@@@@@@@@@@@@@##            ",
"            ..++@@@@@@@@@@@@@@@@@@@@@@@@@@@@@@@@@@##            ",
"            ..++@@@@@@@@@@@@@@@@@@@@@@@@@@@@@@@@@@##            ",
"            ..++@@@@@@@@@@@@@@@@@@@@@@@@@@@@@@@@@@##            ",
"            ..++@@@@@@@@@@@@@@@@@@@@@@@@@@@@@@@@@@##            ",
"            ..++@@@@@@@@@@@@@@@@@@@@@@@@@@@@@@@@@@##            ",
"            ..++@@@@@@@@@@@@@@@@@@@@@@@@@@@@@@@@@@##            ",
"            ..++@@@@@@@@@@@@@@@@@@@@@@@@@@@@@@@@@@##            ",
"            ..++@@@@@@@@@@@@@@@@@@@@@@@@@@@@@@@@@@##            ",
"            ..++@@@@@@@@@@@@@@@@@@@@@@@@@@@@@@@@@@##            ",
"            ..++@@@@@@@@@@@@@@@@@@@@@@@@@@@@@@@@@@##            ",
"            ..++@@@@@@@@@@@@@@@@@@@@@@@@@@@@@@@@@@##            ",
"            ..++@@@@@@@@@@@@@@@@@@@@@@@@@@@@@@@@@@##            ",
"            ..++@@@@@@@@@@@@@@@@@@@@@@@@@@@@@@@@@@##            ",
"            ..++@@@@@@@@@@@@@@@@@@@@@@@@@@@@@@@@@@##            ",
"            ..++@@@@@@@@@@@@@@@@@@@@@@@@@@@@@@@@@@##            ",
"            ..++@@@@@@@@@@@@@@@@@@@@@@@@@@@@@@@@@@##            ",
"            ..++@@@@@@@@@@@@@@@@@@@@@@@@@@@@@@@@@@##            ",
"            ..++@@@@@@@@@@@@@@@@@@@@@@@@@@@@@@@@@@##            ",
"            ..++@@@@@@@@@@$$$$$$$$$$$$@@@@@@@@@@@@##            ",
"            ..++@@@@@@@@@@$$$$$$$$$$$$@@@@@@@@@@@@##            ",
"            ....@@@@@@@@@@@@@@@@@@@@@@@@@@@@@@@@@@##            ",
"            ....@@@@@@@@@@@@@@@@@@@@@@@@@@@@@@@@@@##            ",
"              ##@@@@@@@@@@@@@@@@@@@@@@@@@@@@@@@@##              ",
"              ##@@@@@@@@@@@@@@@@@@@@@@@@@@@@@@@@##              ",
"                ##..@@@@@@@@@@@@@@@@@@@@@@@@..##                ",
"                ##..@@@@@@@@@@@@@@@@@@@@@@@@..##                ",
"                  ####%%%%%%%%%%%%%%%%%%%%####                  ",
"                  ####%%%%%%%%%%%%%%%%%%%%####                  ",
"                      ####################                      ",
"                      ####################                      "};
