/* XPM */
static char * icon_85_xpm[] = {
"64 64 8 1",
" 	c None",
".	c #808080",
"+	c #FFFFFF",
"@	c #C0C0C0",
"#	c #000000",
"$	c #000080",
"%	c #0000FF",
"&	c #FF0000",
"                            ..........                          ",
"                            ..........                          ",
"                          ..++++++@@..                          ",
"                          ..++++++@@..                          ",
"                    ........++@@@@@@..######                    ",
"                    ........++@@@@@@..######                    ",
"              ......++++++..++@@......##....######              ",
"              ......++++++..++@@......##....######              ",
"            ......++@@@@@@@@##########............##            ",
"            ......++@@@@@@@@##########............##            ",
"            ..++@@....@@@@@@@@@@@@@@@@@@@@@@@@....##            ",
"            ..++@@....@@@@@@@@@@@@@@@@@@@@@@@@....##            ",
"            ..++@@@@@@........................@@@@##            ",
"            ..++@@@@@@........................@@@@##            ",
"            ..++@@@@@@@@@@@@@@@@@@@@@@@@@@@@@@@@@@##            ",
"            ..++@@@@@@@@@@@@@@@@@@@@@@@@@@@@@@@@@@##            ",
"            ..++$$..@@@@@@@@@@@@@@@@@@@@@@@@@@..$$##            ",
"            ..++$$..@@@@@@@@@@@@@@@@@@@@@@@@@@..$$##            ",
"            ..@@$$$$$$$$$$$$$$$$$$$$$$$$$$$$$$$$$$##            ",
"            ..@@$$$$$$$$$$$$$$$$$$$$$$$$$$$$$$$$$$##            ",
"            ..@@$$%%$$%%$$%%$$&&&&%%$$%%$$%%$$%%$$##            ",
"            ..@@$$%%$$%%$$%%$$&&&&%%$$%%$$%%$$%%$$##            ",
"            ..@@%%$$%%$$%%$$%%&&&&$$%%$$%%$$%%$$$$##            ",
"            ..@@%%$$%%$$%%$$%%&&&&$$%%$$%%$$%%$$$$##            ",
"            ..@@$$%%$$%%$$&&&&&&&&&&&&%%$$%%$$%%$$##            ",
"            ..@@$$%%$$%%$$&&&&&&&&&&&&%%$$%%$$%%$$##            ",
"            ..@@%%$$%%$$%%&&&&&&&&&&&&$$%%$$%%$$$$##            ",
"            ..@@%%$$%%$$%%&&&&&&&&&&&&$$%%$$%%$$$$##            ",
"            ..@@$$%%$$%%$$%%$$&&&&%%$$%%$$%%$$%%$$##            ",
"            ..@@$$%%$$%%$$%%$$&&&&%%$$%%$$%%$$%%$$##            ",
"            ..@@%%$$%%$$%%$$%%&&&&$$%%$$%%$$%%$$$$##            ",
"            ..@@%%$$%%$$%%$$%%&&&&$$%%$$%%$$%%$$$$##            ",
"            ..@@$$%%$$%%$$%%$$%%$$%%$$%%$$%%$$%%$$##            ",
"            ..@@$$%%$$%%$$%%$$%%$$%%$$%%$$%%$$%%$$##            ",
"            ..@@%%$$%%$$%%$$%%$$%%$$%%$$%%$$%%$$$$##            ",
"            ..@@%%$$%%$$%%$$%%$$%%$$%%$$%%$$%%$$$$##            ",
"            ..@@$$%%$$%%$$%%$$%%$$%%$$%%$$%%$$%%$$##            ",
"            ..@@$$%%$$%%$$%%$$%%$$%%$$%%$$%%$$%%$$##            ",
"            ..@@%%$$%%$$%%$$%%$$%%$$%%$$%%$$%%$$$$##            ",
"            ..@@%%$$%%$$%%$$%%$$%%$$%%$$%%$$%%$$$$##            ",
"            ..@@$$%%$$%%$$%%$$%%$$%%$$%%$$%%$$%%$$##            ",
"            ..@@$$%%$$%%$$%%$$%%$$%%$$%%$$%%$$%%$$##            ",
"            ..@@%%$$%%$$%%$$%%$$%%$$%%$$%%$$%%$$$$##            ",
"            ..@@%%$$%%$$%%$$%%$$%%$$%%$$%%$$%%$$$$##            ",
"            ..@@$$%%$$%%$$%%$$%%$$%%$$%%$$%%$$%%$$##            ",
"            ..@@$$%%$$%%$$%%$$%%$$%%$$%%$$%%$$%%$$##            ",
"            ..@@%%$$%%$$%%$$%%$$%%$$%%$$%%$$%%$$$$##            ",
"            ..@@%%$$%%$$%%$$%%$$%%$$%%$$%%$$%%$$$$##            ",
"            ..@@$$%%$$%%$$%%$$%%$$%%$$%%$$%%$$%%$$##            ",
"            ..@@$$%%$$%%$$%%$$%%$$%%$$%%$$%%$$%%$$##            ",
"            ..@@%%$$%%$$%%$$%%$$%%$$%%$$%%$$%%$$$$##            ",
"            ..@@%%$$%%$$%%$$%%$$%%$$%%$$%%$$%%$$$$##            ",
"            ..@@$$%%$$%%$$&&&&&&&&&&&&%%$$%%$$%%$$##            ",
"            ..@@$$%%$$%%$$&&&&&&&&&&&&%%$$%%$$%%$$##            ",
"            ....%%$$%%$$%%$$%%$$%%$$%%$$%%$$%%$$$$##            ",
"            ....%%$$%%$$%%$$%%$$%%$$%%$$%%$$%%$$$$##            ",
"              ##$$%%$$%%$$%%$$%%$$%%$$%%$$%%$$$$##              ",
"              ##$$%%$$%%$$%%$$%%$$%%$$%%$$%%$$$$##              ",
"                ##$$%%$$%%$$%%$$%%$$%%$$%%$$$$##                ",
"                ##$$%%$$%%$$%%$$%%$$%%$$%%$$$$##                ",
"                  ####$$$$$$$$$$$$$$$$$$$$####                  ",
"                  ####$$$$$$$$$$$$$$$$$$$$####                  ",
"                      ####################                      ",
"                      ####################                      "};
