/* XPM */
static char * icon_45_xpm[] = {
"64 64 8 1",
" 	c None",
".	c #808080",
"+	c #FFFFFF",
"@	c #C0C0C0",
"#	c #000000",
"$	c #FF0000",
"%	c #000080",
"&	c #0000FF",
"                            ..........                          ",
"                            ..........                          ",
"                          ..++++++@@..                          ",
"                          ..++++++@@..                          ",
"                    ........++@@@@@@..######                    ",
"                    ........++@@@@@@..######                    ",
"              ......++++++..++@@......##....######              ",
"              ......++++++..++@@......##....######              ",
"            ......++@@@@@@@@##########............##            ",
"            ......++@@@@@@@@##########............##            ",
"            ..++@@....@@@@@@@@@@@@@@@@@@@@@@@@....##            ",
"            ..++@@....@@@@@@@@@@@@@@@@@@@@@@@@....##            ",
"            ..++@@@@@@........................@@@@##            ",
"            ..++@@@@@@........................@@@@##            ",
"            ..++@@@@@@@@@@@@@@@@@@@@@@@@@@@@@@@@@@##            ",
"            ..++@@@@@@@@@@@@@@@@@@@@@@@@@@@@@@@@@@##            ",
"            ..++@@@@@@@@@@@@@@@@@@@@@@@@@@@@@@@@@@##            ",
"            ..++@@@@@@@@@@@@@@@@@@@@@@@@@@@@@@@@@@##            ",
"            ..++@@@@@@@@@@@@@@@@@@@@@@@@@@@@@@@@@@##            ",
"            ..++@@@@@@@@@@@@@@@@@@@@@@@@@@@@@@@@@@##            ",
"            ..++@@@@@@@@@@@@@@$$$$@@@@@@@@@@@@@@@@##            ",
"            ..++@@@@@@@@@@@@@@$$$$@@@@@@@@@@@@@@@@##            ",
"            ..++@@@@@@@@@@@@@@$$$$@@@@@@@@@@@@@@@@##            ",
"            ..++@@@@@@@@@@@@@@$$$$@@@@@@@@@@@@@@@@##            ",
"            ..++@@@@@@@@@@$$$$$$$$$$$$@@@@@@@@@@@@##            ",
"            ..++@@@@@@@@@@$$$$$$$$$$$$@@@@@@@@@@@@##            ",
"            ..++@@@@@@@@@@$$$$$$$$$$$$@@@@@@@@@@@@##            ",
"            ..++@@@@@@@@@@$$$$$$$$$$$$@@@@@@@@@@@@##            ",
"            ..++@@@@@@@@@@@@@@$$$$@@@@@@@@@@@@@@@@##            ",
"            ..++@@@@@@@@@@@@@@$$$$@@@@@@@@@@@@@@@@##            ",
"            ..++@@@@@@@@@@@@@@$$$$@@@@@@@@@@@@@@@@##            ",
"            ..++@@@@@@@@@@@@@@$$$$@@@@@@@@@@@@@@@@##            ",
"            ..++%%..@@@@@@@@@@@@@@@@@@@@@@@@@@..%%##            ",
"            ..++%%..@@@@@@@@@@@@@@@@@@@@@@@@@@..%%##            ",
"            ..@@%%%%%%%%%%%%%%%%%%%%%%%%%%%%%%%%%%##            ",
"            ..@@%%%%%%%%%%%%%%%%%%%%%%%%%%%%%%%%%%##            ",
"            ..@@%%&&%%&&%%&&%%&&%%&&%%&&%%&&%%&&%%##            ",
"            ..@@%%&&%%&&%%&&%%&&%%&&%%&&%%&&%%&&%%##            ",
"            ..@@&&%%&&%%&&%%&&%%&&%%&&%%&&%%&&%%%%##            ",
"            ..@@&&%%&&%%&&%%&&%%&&%%&&%%&&%%&&%%%%##            ",
"            ..@@%%&&%%&&%%&&%%&&%%&&%%&&%%&&%%&&%%##            ",
"            ..@@%%&&%%&&%%&&%%&&%%&&%%&&%%&&%%&&%%##            ",
"            ..@@&&%%&&%%&&%%&&%%&&%%&&%%&&%%&&%%%%##            ",
"            ..@@&&%%&&%%&&%%&&%%&&%%&&%%&&%%&&%%%%##            ",
"            ..@@%%&&%%&&%%&&%%&&%%&&%%&&%%&&%%&&%%##            ",
"            ..@@%%&&%%&&%%&&%%&&%%&&%%&&%%&&%%&&%%##            ",
"            ..@@&&%%&&%%&&%%&&%%&&%%&&%%&&%%&&%%%%##            ",
"            ..@@&&%%&&%%&&%%&&%%&&%%&&%%&&%%&&%%%%##            ",
"            ..@@%%&&%%&&%%&&%%&&%%&&%%&&%%&&%%&&%%##            ",
"            ..@@%%&&%%&&%%&&%%&&%%&&%%&&%%&&%%&&%%##            ",
"            ..@@&&%%&&%%&&%%&&%%&&%%&&%%&&%%&&%%%%##            ",
"            ..@@&&%%&&%%&&%%&&%%&&%%&&%%&&%%&&%%%%##            ",
"            ..@@%%&&%%&&%%$$$$$$$$$$$$&&%%&&%%&&%%##            ",
"            ..@@%%&&%%&&%%$$$$$$$$$$$$&&%%&&%%&&%%##            ",
"            ....&&%%&&%%&&%%&&%%&&%%&&%%&&%%&&%%%%##            ",
"            ....&&%%&&%%&&%%&&%%&&%%&&%%&&%%&&%%%%##            ",
"              ##%%&&%%&&%%&&%%&&%%&&%%&&%%&&%%%%##              ",
"              ##%%&&%%&&%%&&%%&&%%&&%%&&%%&&%%%%##              ",
"                ##%%&&%%&&%%&&%%&&%%&&%%&&%%%%##                ",
"                ##%%&&%%&&%%&&%%&&%%&&%%&&%%%%##                ",
"                  ####%%%%%%%%%%%%%%%%%%%%####                  ",
"                  ####%%%%%%%%%%%%%%%%%%%%####                  ",
"                      ####################                      ",
"                      ####################                      "};
